<?xml version="1.0" encoding="UTF-8" standalone="no"?>
<!-- Created with Inkscape (http://www.inkscape.org/) -->

<svg
        xmlns="http://www.w3.org/2000/svg"
        width="8.784852mm"
        height="3.8004665mm"
        viewBox="0 0 8.784852 3.8004665"
        version="1.1"
        id="svg10153">
    <defs
            id="defs10147">
        <clipPath
                clipPathUnits="userSpaceOnUse"
                id="clipPath6226">
            <path
                    d="M 0,841.89 H 1190.55 V 0 H 0 Z"
                    id="path6224"
            />
        </clipPath>
    </defs>
    <metadata
            id="metadata10150">
    </metadata>
    <g
            id="layer1"
            transform="translate(-23.830515,-223.95935)">
        <g
                id="g15241"
                transform="matrix(0.17059237,0,0,0.17059237,19.765211,188.90573)">
            <g
                    transform="matrix(0.35277777,0,0,-0.35277777,25.50852,218.56237)"
                    id="g6332">
                <path

                        id="path6334"
                        style="fill:#101010;fill-opacity:1;fill-rule:nonzero;stroke:none"
                        d="M 0,0 H 6.836 L 20.413,-21.254 H 14.459 Z"/>
            </g>
            <g
                    transform="matrix(0.35277777,0,0,-0.35277777,25.50852,218.56237)"
                    id="g6336">
                <path

                        id="path6338"
                        style="fill:none;stroke:#ffffff;stroke-width:0.3;stroke-linecap:butt;stroke-linejoin:miter;stroke-miterlimit:10;stroke-dasharray:none;stroke-opacity:1"
                        d="M 0,0 H 6.836 L 20.413,-21.254 H 14.459 Z"/>
            </g>
            <g
                    transform="matrix(0.35277777,0,0,-0.35277777,28.910567,218.56237)"
                    id="g6340">
                <path

                        id="path6342"
                        style="fill:#101010;fill-opacity:1;fill-rule:nonzero;stroke:none"
                        d="m 0,0 c 0,0 5.478,0.035 5.478,0 0,-0.034 8.613,-9.689 8.613,-9.726 0,-0.036 -4.67,9.714 -4.67,9.714 h 6.976 c 0,0 9.412,-21.242 9.375,-21.242 H 21.97 l -7.879,8.333 4.414,-8.333 h -5.596 z"/>
            </g>
            <g
                    transform="matrix(0.35277777,0,0,-0.35277777,28.910567,218.56237)"
                    id="g6344">
                <path

                        id="path6346"
                        style="fill:none;stroke:#ffffff;stroke-width:0.3;stroke-linecap:butt;stroke-linejoin:miter;stroke-miterlimit:10;stroke-dasharray:none;stroke-opacity:1"
                        d="m 0,0 c 0,0 5.478,0.035 5.478,0 0,-0.034 8.613,-9.689 8.613,-9.726 0,-0.036 -4.67,9.714 -4.67,9.714 h 6.976 c 0,0 9.412,-21.242 9.375,-21.242 H 21.97 l -7.879,8.333 4.414,-8.333 h -5.596 z"/>
            </g>
            <g
                    transform="matrix(0.35277777,0,0,-0.35277777,35.23612,218.56237)"
                    id="g6348">
                <path

                        id="path6350"
                        style="fill:#101010;fill-opacity:1;fill-rule:nonzero;stroke:none"
                        d="M 0,0 H 7.105 L 15.063,-15.918 12.068,0 h 7.502 l 2.049,-21.254 h -9.515 z"/>
            </g>
            <g
                    transform="matrix(0.35277777,0,0,-0.35277777,35.23612,218.56237)"
                    id="g6352">
                <path

                        id="path6354"
                        style="fill:none;stroke:#ffffff;stroke-width:0.3;stroke-linecap:butt;stroke-linejoin:miter;stroke-miterlimit:10;stroke-dasharray:none;stroke-opacity:1"
                        d="M 0,0 H 7.105 L 15.063,-15.918 12.068,0 h 7.502 l 2.049,-21.254 h -9.515 z"/>
            </g>
            <g
                    transform="matrix(0.35277777,0,0,-0.35277777,56.042423,218.56649)"
                    id="g6356">
                <path

                        id="path6358"
                        style="fill:#101010;fill-opacity:1;fill-rule:nonzero;stroke:none"
                        d="M 0,0 H 15.215 L 13.918,-3.908 H 6.414 L 4.905,-9.746 H 11.16 L 9.846,-13.041 H 4.039 l -1.348,-5.65 H 9.012 L 8.158,-21.23 H -3.723 Z"/>
            </g>
            <g
                    transform="matrix(0.35277777,0,0,-0.35277777,56.042423,218.56649)"
                    id="g6360">
                <path

                        id="path6362"
                        style="fill:none;stroke:#ffffff;stroke-width:0.3;stroke-linecap:butt;stroke-linejoin:miter;stroke-miterlimit:10;stroke-dasharray:none;stroke-opacity:1"
                        d="M 0,0 H 15.215 L 13.918,-3.908 H 6.414 L 4.905,-9.746 H 11.16 L 9.846,-13.041 H 4.039 l -1.348,-5.65 H 9.012 L 8.158,-21.23 H -3.723 Z"/>
            </g>
            <g
                    transform="matrix(0.35277777,0,0,-0.35277777,64.948686,219.88701)"
                    id="g6364">
                <path

                        id="path6366"
                        style="fill:#101010;fill-opacity:1;fill-rule:nonzero;stroke:none"
                        d="m 0,0 h -2.211 l -2.961,-6.919 h 2.037 z M -7.887,3.743 H 4.961 l 2.422,-3.394 -3.59,-6.66 -3.731,-1.908 1.696,-1.975 -3.841,-7.293 h -5.804 l 3.346,7.384 h -1.977 l -3.185,-7.384 h -5.688 z"/>
            </g>
            <g
                    transform="matrix(0.35277777,0,0,-0.35277777,64.948686,219.88701)"
                    id="g6368">
                <path

                        id="path6370"
                        style="fill:none;stroke:#ffffff;stroke-width:0.3;stroke-linecap:butt;stroke-linejoin:miter;stroke-miterlimit:10;stroke-dasharray:none;stroke-opacity:1"
                        d="m 0,0 h -2.211 l -2.961,-6.919 h 2.037 z M -7.887,3.743 H 4.961 l 2.422,-3.394 -3.59,-6.66 -3.731,-1.908 1.696,-1.975 -3.841,-7.293 h -5.804 l 3.346,7.384 h -1.977 l -3.185,-7.384 h -5.688 z"/>
            </g>
            <g
                    transform="matrix(0.35277777,0,0,-0.35277777,74.039593,219.54905)"
                    id="g6372">
                <path

                        id="path6374"
                        style="fill:#101010;fill-opacity:1;fill-rule:nonzero;stroke:none"
                        d="m 0,0 -3.898,-5.465 h -6.448 l 2.891,4.516 h -1.896 l -3.933,-6.343 h 4.483 l 1.708,-2.634 c 0,0 -4.249,-6.015 -4.284,-6.015 -0.035,0 -4.588,-2.504 -4.588,-2.504 h -6.893 l -1.828,2.293 1.791,3.242 h 6.288 l -1.639,-2.622 h 1.402 l 2.881,4.483 h -4.236 l -2.002,3.057 4.178,7.617 5.665,3.184 h 8.838 z"/>
            </g>
            <g
                    transform="matrix(0.35277777,0,0,-0.35277777,74.039593,219.54905)"
                    id="g6376">
                <path

                        id="path6378"
                        style="fill:none;stroke:#ffffff;stroke-width:0.3;stroke-linecap:butt;stroke-linejoin:miter;stroke-miterlimit:10;stroke-dasharray:none;stroke-opacity:1"
                        d="m 0,0 -3.898,-5.465 h -6.448 l 2.891,4.516 h -1.896 l -3.933,-6.343 h 4.483 l 1.708,-2.634 c 0,0 -4.249,-6.015 -4.284,-6.015 -0.035,0 -4.588,-2.504 -4.588,-2.504 h -6.893 l -1.828,2.293 1.791,3.242 h 6.288 l -1.639,-2.622 h 1.402 l 2.881,4.483 h -4.236 l -2.002,3.057 4.178,7.617 5.665,3.184 h 8.838 z"/>
            </g>
            <g
                    transform="matrix(0.35277777,0,0,-0.35277777,45.773627,221.37806)"
                    id="g6380">
                <path

                        id="path6382"
                        style="fill:#101010;fill-opacity:1;fill-rule:nonzero;stroke:none"
                        d="M 0,0 V -7.338 H 2.024 Z M -6.181,7.993 H 4.038 L 8.603,-13.272 H 3.558 L 2.61,-9.996 H 0.013 v -3.276 h -5.432 z"/>
            </g>
            <g
                    transform="matrix(0.35277777,0,0,-0.35277777,45.773627,221.37806)"
                    id="g6384">
                <path

                        id="path6386"
                        style="fill:none;stroke:#ffffff;stroke-width:0.3;stroke-linecap:butt;stroke-linejoin:miter;stroke-miterlimit:10;stroke-dasharray:none;stroke-opacity:1"
                        d="M 0,0 V -7.338 H 2.024 Z M -6.181,7.993 H 4.038 L 8.603,-13.272 H 3.558 L 2.61,-9.996 H 0.013 v -3.276 h -5.432 z"/>
            </g>
            <g
                    transform="matrix(0.35277777,0,0,-0.35277777,51.318482,225.16457)"
                    id="g6388">
                <path

                        id="path6390"
                        style="fill:#101010;fill-opacity:1;fill-rule:nonzero;stroke:none"
                        d="M 0,0 H 1.641 L 2.693,14.795 H 0.727 Z M -6.027,18.715 H 6.006 c 0,0 4.154,-3.569 4.154,-3.606 0,-0.033 -2.27,-15.296 -2.27,-15.296 L 4.684,-2.527 H -5.547 Z"/>
            </g>
            <g
                    transform="matrix(0.35277777,0,0,-0.35277777,51.318482,225.16457)"
                    id="g6392">
                <path

                        id="path6394"
                        style="fill:none;stroke:#ffffff;stroke-width:0.3;stroke-linecap:butt;stroke-linejoin:miter;stroke-miterlimit:10;stroke-dasharray:none;stroke-opacity:1"
                        d="M 0,0 H 1.641 L 2.693,14.795 H 0.727 Z M -6.027,18.715 H 6.006 c 0,0 4.154,-3.569 4.154,-3.606 0,-0.033 -2.27,-15.296 -2.27,-15.296 L 4.684,-2.527 H -5.547 Z"/>
            </g>
            <g
                    transform="matrix(0.35277777,0,0,-0.35277777,35.266423,206.83423)"
                    id="g6396">
                <path

                        id="path6398"
                        style="fill:#101010;fill-opacity:1;fill-rule:nonzero;stroke:none"
                        d="m 0,0 h 8.17 l 5.037,-4.214 1.365,-6.216 H 7.557 l -1.34,4.685 H 4.709 l 1.977,-6.969 h 5.085 l 4.026,-3.39 1.553,-7.084 -2.942,-3.369 H 7.395 l -3.957,2.919 -1.295,3.627 h 6.685 l 0.66,-2.284 h 1.389 l -1.363,4.686 H 4.568 l -4.922,4.708 -2.917,8.168 z"/>
            </g>
            <g
                    transform="matrix(0.35277777,0,0,-0.35277777,35.266423,206.83423)"
                    id="g6400">
                <path

                        id="path6402"
                        style="fill:none;stroke:#ffffff;stroke-width:0.3;stroke-linecap:butt;stroke-linejoin:miter;stroke-miterlimit:10;stroke-dasharray:none;stroke-opacity:1"
                        d="m 0,0 h 8.17 l 5.037,-4.214 1.365,-6.216 H 7.557 l -1.34,4.685 H 4.709 l 1.977,-6.969 h 5.085 l 4.026,-3.39 1.553,-7.084 -2.942,-3.369 H 7.395 l -3.957,2.919 -1.295,3.627 h 6.685 l 0.66,-2.284 h 1.389 l -1.363,4.686 H 4.568 l -4.922,4.708 -2.917,8.168 z"/>
            </g>
            <g
                    transform="matrix(0.35277777,0,0,-0.35277777,43.983879,211.97191)"
                    id="g6404">
                <path

                        id="path6406"
                        style="fill:#101010;fill-opacity:1;fill-rule:nonzero;stroke:none"
                        d="M 0,0 H 1.602 L 0.446,8.805 H -1.247 Z M -9.581,14.501 H 2.943 L 7.84,10.146 8.594,-0.447 5.367,-4.967 H 0.494 l 1.2,-7.064 h -5.977 z"/>
            </g>
            <g
                    transform="matrix(0.35277777,0,0,-0.35277777,43.983879,211.97191)"
                    id="g6408">
                <path

                        id="path6410"
                        style="fill:none;stroke:#ffffff;stroke-width:0.3;stroke-linecap:butt;stroke-linejoin:miter;stroke-miterlimit:10;stroke-dasharray:none;stroke-opacity:1"
                        d="M 0,0 H 1.602 L 0.446,8.805 H -1.247 Z M -9.581,14.501 H 2.943 L 7.84,10.146 8.594,-0.447 5.367,-4.967 H 0.494 l 1.2,-7.064 h -5.977 z"/>
            </g>
            <g
                    transform="matrix(0.35277777,0,0,-0.35277777,49.632487,213.22935)"
                    id="g6412">
                <path

                        id="path6414"
                        style="fill:#101010;fill-opacity:1;fill-rule:nonzero;stroke:none"
                        d="m 0,0 h 1.953 c 0,0 -0.848,10.71 -0.918,10.71 z M -3.979,18.128 H 6.262 L 8.498,-8.431 H 2.672 L 2.283,-4.248 H -0.33 l -0.447,-4.183 h -5.84 z"/>
            </g>
            <g
                    transform="matrix(0.35277777,0,0,-0.35277777,49.632487,213.22935)"
                    id="g6416">
                <path

                        id="path6418"
                        style="fill:none;stroke:#ffffff;stroke-width:0.3;stroke-linecap:butt;stroke-linejoin:miter;stroke-miterlimit:10;stroke-dasharray:none;stroke-opacity:1"
                        d="m 0,0 h 1.953 c 0,0 -0.848,10.71 -0.918,10.71 z M -3.979,18.128 H 6.262 L 8.498,-8.431 H 2.672 L 2.283,-4.248 H -0.33 l -0.447,-4.183 h -5.84 z"/>
            </g>
            <g
                    transform="matrix(0.35277777,0,0,-0.35277777,55.545642,206.83871)"
                    id="g6420">
                <path

                        id="path6422"
                        style="fill:#101010;fill-opacity:1;fill-rule:nonzero;stroke:none"
                        d="m 0,0 h 8.449 l 3.932,-4.479 -1.502,-5.938 H 3.105 l 0.801,4.872 H 2.354 L -0.13,-22.306 h 1.456 l 0.879,5.861 h 7.207 l -1.719,-6.924 -4.177,-3.509 h -6.981 l -3.096,3.838 1.711,18.708 z"/>
            </g>
            <g
                    transform="matrix(0.35277777,0,0,-0.35277777,55.545642,206.83871)"
                    id="g6424">
                <path

                        id="path6426"
                        style="fill:none;stroke:#ffffff;stroke-width:0.3;stroke-linecap:butt;stroke-linejoin:miter;stroke-miterlimit:10;stroke-dasharray:none;stroke-opacity:1"
                        d="m 0,0 h 8.449 l 3.932,-4.479 -1.502,-5.938 H 3.105 l 0.801,4.872 H 2.354 L -0.13,-22.306 h 1.456 l 0.879,5.861 h 7.207 l -1.719,-6.924 -4.177,-3.509 h -6.981 l -3.096,3.838 1.711,18.708 z"/>
            </g>
            <g
                    transform="matrix(0.35277777,0,0,-0.35277777,61.060546,206.83871)"
                    id="g6428">
                <path

                        id="path6430"
                        style="fill:#101010;fill-opacity:1;fill-rule:nonzero;stroke:none"
                        d="m 0,0 h 15.385 l -1.99,-5.557 H 5.873 l -1.59,-5.236 H 9.357 L 7.686,-15.691 H 3.012 l -1.871,-6.591 h 6.166 l -1.53,-4.25 H -6.477 Z"/>
            </g>
            <g
                    transform="matrix(0.35277777,0,0,-0.35277777,61.060546,206.83871)"
                    id="g6432">
                <path

                        id="path6434"
                        style="fill:none;stroke:#ffffff;stroke-width:0.3;stroke-linecap:butt;stroke-linejoin:miter;stroke-miterlimit:10;stroke-dasharray:none;stroke-opacity:1"
                        d="m 0,0 h 15.385 l -1.99,-5.557 H 5.873 l -1.59,-5.236 H 9.357 L 7.686,-15.691 H 3.012 l -1.871,-6.591 h 6.166 l -1.53,-4.25 H -6.477 Z"/>
            </g>
            <g
                    transform="matrix(0.35277777,0,0,-0.35277777,23.97376,219.75987)"
                    id="g6436">
                <path

                        id="path6438"
                        style="fill:#221815;fill-opacity:1;fill-rule:nonzero;stroke:none"
                        d="M 0,0 H 7.226 L 21.577,-22.467 H 15.911 Z"/>
            </g>
            <g
                    transform="matrix(0.35277777,0,0,-0.35277777,23.97376,219.75987)"
                    id="g6440">
                <path

                        id="path6442"
                        style="fill:none;stroke:#221815;stroke-width:0.41999999;stroke-linecap:butt;stroke-linejoin:miter;stroke-miterlimit:4;stroke-dasharray:none;stroke-opacity:1"
                        d="M 0,0 H 7.226 L 21.577,-22.467 H 15.911 Z"/>
            </g>
            <g
                    transform="matrix(0.35277777,0,0,-0.35277777,27.592131,219.75987)"
                    id="g6444">
                <path

                        id="path6446"
                        style="fill:#221815;fill-opacity:1;fill-rule:nonzero;stroke:none"
                        d="m 0,0 c 0,0 5.789,0.037 5.789,0 0,-0.037 9.106,-10.244 9.106,-10.281 0,-0.036 -4.935,10.269 -4.935,10.269 h 7.372 c 0,0 9.948,-22.455 9.91,-22.455 h -4.02 l -8.327,8.808 4.664,-8.808 h -5.913 z"/>
            </g>
            <g
                    transform="matrix(0.35277777,0,0,-0.35277777,27.592131,219.75987)"
                    id="g6448">
                <path

                        id="path6450"
                        style="fill:none;stroke:#221815;stroke-width:0.41999999;stroke-linecap:butt;stroke-linejoin:miter;stroke-miterlimit:4;stroke-dasharray:none;stroke-opacity:1"
                        d="m 0,0 c 0,0 5.789,0.037 5.789,0 0,-0.037 9.106,-10.244 9.106,-10.281 0,-0.036 -4.935,10.269 -4.935,10.269 h 7.372 c 0,0 9.948,-22.455 9.91,-22.455 h -4.02 l -8.327,8.808 4.664,-8.808 h -5.913 z"/>
            </g>
            <g
                    transform="matrix(0.35277777,0,0,-0.35277777,34.278363,219.75987)"
                    id="g6452">
                <path

                        id="path6454"
                        style="fill:#221815;fill-opacity:1;fill-rule:nonzero;stroke:none"
                        d="M 0,0 H 7.51 L 15.924,-16.825 12.756,0 h 7.93 l 2.166,-22.467 H 12.793 Z"/>
            </g>
            <g
                    transform="matrix(0.35277777,0,0,-0.35277777,34.278363,219.75987)"
                    id="g6456">
                <path

                        id="path6458"
                        style="fill:none;stroke:#221815;stroke-width:0.41999999;stroke-linecap:butt;stroke-linejoin:miter;stroke-miterlimit:4;stroke-dasharray:none;stroke-opacity:1"
                        d="M 0,0 H 7.51 L 15.924,-16.825 12.756,0 h 7.93 l 2.166,-22.467 H 12.793 Z"/>
            </g>
            <g
                    transform="matrix(0.35277777,0,0,-0.35277777,56.271164,219.76403)"
                    id="g6460">
                <path

                        id="path6462"
                        style="fill:#221815;fill-opacity:1;fill-rule:nonzero;stroke:none"
                        d="M 0,0 H 16.084 L 14.709,-4.133 H 6.781 L 5.394,-9.676 h 6.497 l -1.276,-3.588 H 4.479 l -1.633,-6.495 h 6.68 L 8.623,-22.443 H -3.934 Z"/>
            </g>
            <g
                    transform="matrix(0.35277777,0,0,-0.35277777,56.271164,219.76403)"
                    id="g6464">
                <path

                        id="path6466"
                        style="fill:none;stroke:#221815;stroke-width:0.41999999;stroke-linecap:butt;stroke-linejoin:miter;stroke-miterlimit:4;stroke-dasharray:none;stroke-opacity:1"
                        d="M 0,0 H 16.084 L 14.709,-4.133 H 6.781 L 5.394,-9.676 h 6.497 l -1.276,-3.588 H 4.479 l -1.633,-6.495 h 6.68 L 8.623,-22.443 H -3.934 Z"/>
            </g>
            <g
                    transform="matrix(0.35277777,0,0,-0.35277777,65.685921,221.16064)"
                    id="g6468">
                <path

                        id="path6470"
                        style="fill:#221815;fill-opacity:1;fill-rule:nonzero;stroke:none"
                        d="m 0,0 h -2.339 l -3.132,-7.312 h 2.155 z M -8.338,3.959 H 5.293 L 7.707,0.37 4.008,-6.669 l -4.465,-2.016 2.311,-2.093 -4.057,-7.706 h -6.135 l 3.538,7.806 h -2.091 l -3.367,-7.806 h -6.012 z"/>
            </g>
            <g
                    transform="matrix(0.35277777,0,0,-0.35277777,65.685921,221.16064)"
                    id="g6472">
                <path

                        id="path6474"
                        style="fill:none;stroke:#221815;stroke-width:0.41999999;stroke-linecap:butt;stroke-linejoin:miter;stroke-miterlimit:4;stroke-dasharray:none;stroke-opacity:1"
                        d="m 0,0 h -2.339 l -3.132,-7.312 h 2.155 z M -8.338,3.959 H 5.293 L 7.707,0.37 4.008,-6.669 l -4.465,-2.016 2.311,-2.093 -4.057,-7.706 h -6.135 l 3.538,7.806 h -2.091 l -3.367,-7.806 h -6.012 z"/>
            </g>
            <g
                    transform="matrix(0.35277777,0,0,-0.35277777,75.239531,220.80307)"
                    id="g6476">
                <path

                        id="path6478"
                        style="fill:#221815;fill-opacity:1;fill-rule:nonzero;stroke:none"
                        d="m 0,0 -4.12,-5.777 h -6.815 l 3.055,4.774 h -2.004 l -4.156,-6.704 h 4.736 l 1.809,-2.785 c 0,0 -4.492,-6.358 -4.529,-6.358 -0.038,0 -4.848,-2.648 -4.848,-2.648 h -7.289 l -1.93,2.425 1.891,3.427 h 6.644 l -1.732,-2.772 h 1.486 l 3.043,4.739 h -4.478 l -2.117,3.231 4.417,8.052 5.989,3.365 h 9.342 z"/>
            </g>
            <g
                    transform="matrix(0.35277777,0,0,-0.35277777,75.239531,220.80307)"
                    id="g6480">
                <path

                        id="path6482"
                        style="fill:none;stroke:#221815;stroke-width:0.41999999;stroke-linecap:butt;stroke-linejoin:miter;stroke-miterlimit:4;stroke-dasharray:none;stroke-opacity:1"
                        d="m 0,0 -4.12,-5.777 h -6.815 l 3.055,4.774 h -2.004 l -4.156,-6.704 h 4.736 l 1.809,-2.785 c 0,0 -4.492,-6.358 -4.529,-6.358 -0.038,0 -4.848,-2.648 -4.848,-2.648 h -7.289 l -1.93,2.425 1.891,3.427 h 6.644 l -1.732,-2.772 h 1.486 l 3.043,4.739 h -4.478 l -2.117,3.231 4.417,8.052 5.989,3.365 h 9.342 z"/>
            </g>
            <g
                    transform="matrix(0.35277777,0,0,-0.35277777,45.417039,222.73678)"
                    id="g6484">
                <path

                        id="path6486"
                        style="fill:#221815;fill-opacity:1;fill-rule:nonzero;stroke:none"
                        d="M 0,0 V -7.756 H 2.139 Z M -6.534,8.45 H 4.268 L 9.094,-14.028 H 3.762 L 2.76,-10.564 H 0.014 v -3.464 h -5.743 z"/>
            </g>
            <g
                    transform="matrix(0.35277777,0,0,-0.35277777,45.417039,222.73678)"
                    id="g6488">
                <path

                        id="path6490"
                        style="fill:none;stroke:#221815;stroke-width:0.41999999;stroke-linecap:butt;stroke-linejoin:miter;stroke-miterlimit:4;stroke-dasharray:none;stroke-opacity:1"
                        d="M 0,0 V -7.756 H 2.139 Z M -6.534,8.45 H 4.268 L 9.094,-14.028 H 3.762 L 2.76,-10.564 H 0.014 v -3.464 h -5.743 z"/>
            </g>
            <g
                    transform="matrix(0.35277777,0,0,-0.35277777,51.278548,226.73863)"
                    id="g6492">
                <path

                        id="path6494"
                        style="fill:#221815;fill-opacity:1;fill-rule:nonzero;stroke:none"
                        d="M 0,0 H 1.943 L 3.056,15.638 H 0.767 Z M -6.373,19.782 H 6.348 c 0,0 4.39,-3.773 4.39,-3.81 0,-0.038 -2.4,-16.171 -2.4,-16.171 L 4.949,-2.673 H -5.865 Z"/>
            </g>
            <g
                    transform="matrix(0.35277777,0,0,-0.35277777,51.278548,226.73863)"
                    id="g6496">
                <path

                        id="path6498"
                        style="fill:none;stroke:#221815;stroke-width:0.41999999;stroke-linecap:butt;stroke-linejoin:miter;stroke-miterlimit:4;stroke-dasharray:none;stroke-opacity:1"
                        d="M 0,0 H 1.943 L 3.056,15.638 H 0.767 Z M -6.373,19.782 H 6.348 c 0,0 4.39,-3.773 4.39,-3.81 0,-0.038 -2.4,-16.171 -2.4,-16.171 L 4.949,-2.673 H -5.865 Z"/>
            </g>
            <g
                    transform="matrix(0.35277777,0,0,-0.35277777,34.631847,208.06275)"
                    id="g6500">
                <path

                        id="path6502"
                        style="fill:#221815;fill-opacity:1;fill-rule:nonzero;stroke:none"
                        d="m 0,0 h 8.588 l 5.294,-4.429 1.435,-6.532 H 7.945 L 6.533,-6.038 H 4.949 l 2.08,-7.324 h 5.344 l 4.231,-3.563 1.632,-7.448 -3.091,-3.536 H 7.77 l -4.157,3.066 -1.36,3.811 h 7.026 l 0.694,-2.401 h 1.459 L 9.997,-18.51 H 4.799 l -5.17,4.95 -3.067,8.587 z"/>
            </g>
            <g
                    transform="matrix(0.35277777,0,0,-0.35277777,34.631847,208.06275)"
                    id="g6504">
                <path

                        id="path6506"
                        style="fill:none;stroke:#221815;stroke-width:0.41999999;stroke-linecap:butt;stroke-linejoin:miter;stroke-miterlimit:4;stroke-dasharray:none;stroke-opacity:1"
                        d="m 0,0 h 8.588 l 5.294,-4.429 1.435,-6.532 H 7.945 L 6.533,-6.038 H 4.949 l 2.08,-7.324 h 5.344 l 4.231,-3.563 1.632,-7.448 -3.091,-3.536 H 7.77 l -4.157,3.066 -1.36,3.811 h 7.026 l 0.694,-2.401 h 1.459 L 9.997,-18.51 H 4.799 l -5.17,4.95 -3.067,8.587 z"/>
            </g>
            <g
                    transform="matrix(0.35277777,0,0,-0.35277777,43.771331,213.44846)"
                    id="g6508">
                <path

                        id="path6510"
                        style="fill:#221815;fill-opacity:1;fill-rule:nonzero;stroke:none"
                        d="M 0,0 H 1.683 L 0.472,9.255 H -1.311 Z M -10.071,15.243 H 3.093 L 8.239,10.664 9.032,-0.472 5.642,-5.221 H 0.52 l 1.262,-7.424 h -6.287 z"/>
            </g>
            <g
                    transform="matrix(0.35277777,0,0,-0.35277777,43.771331,213.44846)"
                    id="g6512">
                <path

                        id="path6514"
                        style="fill:none;stroke:#221815;stroke-width:0.41999999;stroke-linecap:butt;stroke-linejoin:miter;stroke-miterlimit:4;stroke-dasharray:none;stroke-opacity:1"
                        d="M 0,0 H 1.683 L 0.472,9.255 H -1.311 Z M -10.071,15.243 H 3.093 L 8.239,10.664 9.032,-0.472 5.642,-5.221 H 0.52 l 1.262,-7.424 h -6.287 z"/>
            </g>
            <g
                    transform="matrix(0.35277777,0,0,-0.35277777,55.817457,208.06723)"
                    id="g6516">
                <path

                        id="path6518"
                        style="fill:#221815;fill-opacity:1;fill-rule:nonzero;stroke:none"
                        d="M 0,0 H 8.772 L 12.83,-4.453 11.245,-10.96 H 3.823 l 0.805,5.134 H 2.475 l -2.611,-17.62 h 1.844 l 1.026,6.163 H 9.712 L 8.004,-24.248 3.773,-27.91 h -7.336 l -3.253,4.033 1.719,19.324 z"/>
            </g>
            <g
                    transform="matrix(0.35277777,0,0,-0.35277777,55.817457,208.06723)"
                    id="g6520">
                <path

                        id="path6522"
                        style="fill:none;stroke:#221815;stroke-width:0.41999999;stroke-linecap:butt;stroke-linejoin:miter;stroke-miterlimit:4;stroke-dasharray:none;stroke-opacity:1"
                        d="M 0,0 H 8.772 L 12.83,-4.453 11.245,-10.96 H 3.823 l 0.805,5.134 H 2.475 l -2.611,-17.62 h 1.844 l 1.026,6.163 H 9.712 L 8.004,-24.248 3.773,-27.91 h -7.336 l -3.253,4.033 1.719,19.324 z"/>
            </g>
            <g
                    transform="matrix(0.35277777,0,0,-0.35277777,61.613807,208.06723)"
                    id="g6524">
                <path

                        id="path6526"
                        style="fill:#221815;fill-opacity:1;fill-rule:nonzero;stroke:none"
                        d="M 0,0 H 16.17 L 14.078,-5.84 H 6.174 L 4.502,-11.345 H 9.836 L 8.078,-16.491 H 3.166 L 1.199,-23.42 H 7.683 L 6.072,-27.887 H -6.805 Z"/>
            </g>
            <g
                    transform="matrix(0.35277777,0,0,-0.35277777,61.613807,208.06723)"
                    id="g6528">
                <path

                        id="path6530"
                        style="fill:none;stroke:#221815;stroke-width:0.41999999;stroke-linecap:butt;stroke-linejoin:miter;stroke-miterlimit:4;stroke-dasharray:none;stroke-opacity:1"
                        d="M 0,0 H 16.17 L 14.078,-5.84 H 6.174 L 4.502,-11.345 H 9.836 L 8.078,-16.491 H 3.166 L 1.199,-23.42 H 7.683 L 6.072,-27.887 H -6.805 Z"/>
            </g>
            <g
                    transform="matrix(0.35277777,0,0,-0.35277777,49.999023,210.81882)"
                    id="g6532">
                <path

                        id="path6534"
                        style="fill:#221815;fill-opacity:1;fill-rule:nonzero;stroke:none"
                        d="M 0,0 -1.125,-11.241 H 0.929 Z M -5.306,7.812 H 5.458 L 7.809,-20.099 H 1.685 l -0.408,4.876 h -2.748 l -0.47,-4.876 h -6.135 z"/>
            </g>
            <g
                    transform="matrix(0.35277777,0,0,-0.35277777,49.999023,210.81882)"
                    id="g6536">
                <path

                        id="path6538"
                        style="fill:none;stroke:#221815;stroke-width:0.41999999;stroke-linecap:butt;stroke-linejoin:miter;stroke-miterlimit:4;stroke-dasharray:none;stroke-opacity:1"
                        d="M 0,0 -1.125,-11.241 H 0.929 Z M -5.306,7.812 H 5.458 L 7.809,-20.099 H 1.685 l -0.408,4.876 h -2.748 l -0.47,-4.876 h -6.135 z"/>
            </g>
            <g
                    transform="matrix(0.35277777,0,0,-0.35277777,23.97376,219.75987)"
                    id="g6540">
                <path

                        id="path6542"
                        style="fill:#ffffff;fill-opacity:1;fill-rule:nonzero;stroke:none"
                        d="M 0,0 H 7.226 L 21.577,-22.467 H 15.911 Z"/>
            </g>
            <g
                    transform="matrix(0.35277777,0,0,-0.35277777,23.97376,219.75987)"
                    id="g6544">
                <path

                        id="path6546"
                        style="fill:none;stroke:#221815;stroke-width:0.105;stroke-linecap:butt;stroke-linejoin:miter;stroke-miterlimit:4;stroke-dasharray:none;stroke-opacity:1"
                        d="M 0,0 H 7.226 L 21.577,-22.467 H 15.911 Z"/>
            </g>
            <g
                    transform="matrix(0.35277777,0,0,-0.35277777,27.592131,219.75987)"
                    id="g6548">
                <path

                        id="path6550"
                        style="fill:#ffffff;fill-opacity:1;fill-rule:nonzero;stroke:none"
                        d="m 0,0 c 0,0 5.789,0.037 5.789,0 0,-0.037 9.106,-10.244 9.106,-10.281 0,-0.036 -4.935,10.269 -4.935,10.269 h 7.372 c 0,0 9.948,-22.455 9.91,-22.455 h -4.02 l -8.327,8.808 4.664,-8.808 h -5.913 z"/>
            </g>
            <g
                    transform="matrix(0.35277777,0,0,-0.35277777,27.592131,219.75987)"
                    id="g6552">
                <path

                        id="path6554"
                        style="fill:none;stroke:#221815;stroke-width:0.105;stroke-linecap:butt;stroke-linejoin:miter;stroke-miterlimit:4;stroke-dasharray:none;stroke-opacity:1"
                        d="m 0,0 c 0,0 5.789,0.037 5.789,0 0,-0.037 9.106,-10.244 9.106,-10.281 0,-0.036 -4.935,10.269 -4.935,10.269 h 7.372 c 0,0 9.948,-22.455 9.91,-22.455 h -4.02 l -8.327,8.808 4.664,-8.808 h -5.913 z"/>
            </g>
            <g
                    transform="matrix(0.35277777,0,0,-0.35277777,34.278363,219.75987)"
                    id="g6556">
                <path

                        id="path6558"
                        style="fill:#ffffff;fill-opacity:1;fill-rule:nonzero;stroke:none"
                        d="M 0,0 H 7.51 L 15.924,-16.825 12.756,0 h 7.93 l 2.166,-22.467 H 12.793 Z"/>
            </g>
            <g
                    transform="matrix(0.35277777,0,0,-0.35277777,34.278363,219.75987)"
                    id="g6560">
                <path

                        id="path6562"
                        style="fill:none;stroke:#221815;stroke-width:0.105;stroke-linecap:butt;stroke-linejoin:miter;stroke-miterlimit:4;stroke-dasharray:none;stroke-opacity:1"
                        d="M 0,0 H 7.51 L 15.924,-16.825 12.756,0 h 7.93 l 2.166,-22.467 H 12.793 Z"/>
            </g>
            <g
                    transform="matrix(0.35277777,0,0,-0.35277777,56.271164,219.76403)"
                    id="g6564">
                <path

                        id="path6566"
                        style="fill:#ffffff;fill-opacity:1;fill-rule:nonzero;stroke:none"
                        d="M 0,0 H 16.084 L 14.709,-4.133 H 6.781 L 5.394,-9.676 h 6.497 l -1.276,-3.588 H 4.479 l -1.633,-6.495 h 6.68 L 8.623,-22.443 H -3.934 Z"/>
            </g>
            <g
                    transform="matrix(0.35277777,0,0,-0.35277777,56.271164,219.76403)"
                    id="g6568">
                <path

                        id="path6570"
                        style="fill:none;stroke:#221815;stroke-width:0.105;stroke-linecap:butt;stroke-linejoin:miter;stroke-miterlimit:4;stroke-dasharray:none;stroke-opacity:1"
                        d="M 0,0 H 16.084 L 14.709,-4.133 H 6.781 L 5.394,-9.676 h 6.497 l -1.276,-3.588 H 4.479 l -1.633,-6.495 h 6.68 L 8.623,-22.443 H -3.934 Z"/>
            </g>
            <g
                    transform="matrix(0.35277777,0,0,-0.35277777,65.685921,221.16064)"
                    id="g6572">
                <path

                        id="path6574"
                        style="fill:#ffffff;fill-opacity:1;fill-rule:nonzero;stroke:none"
                        d="m 0,0 h -2.339 l -3.132,-7.312 h 2.155 z M -8.338,3.959 H 5.293 L 7.707,0.37 4.008,-6.669 l -4.465,-2.016 2.311,-2.093 -4.057,-7.706 h -6.135 l 3.538,7.806 h -2.091 l -3.367,-7.806 h -6.012 z"/>
            </g>
            <g
                    transform="matrix(0.35277777,0,0,-0.35277777,65.685921,221.16064)"
                    id="g6576">
                <path

                        id="path6578"
                        style="fill:none;stroke:#221815;stroke-width:0.105;stroke-linecap:butt;stroke-linejoin:miter;stroke-miterlimit:4;stroke-dasharray:none;stroke-opacity:1"
                        d="m 0,0 h -2.339 l -3.132,-7.312 h 2.155 z M -8.338,3.959 H 5.293 L 7.707,0.37 4.008,-6.669 l -4.465,-2.016 2.311,-2.093 -4.057,-7.706 h -6.135 l 3.538,7.806 h -2.091 l -3.367,-7.806 h -6.012 z"/>
            </g>
            <g
                    transform="matrix(0.35277777,0,0,-0.35277777,71.377214,219.75539)"
                    id="g6580">
                <path

                        id="path6582"
                        style="fill:#ffffff;fill-opacity:1;fill-rule:nonzero;stroke:none"
                        d="m 0,0 h 9.342 c -0.039,0 1.606,-2.97 1.606,-2.97 L 6.828,-8.747 H 0.014 l 3.054,4.774 H 1.064 l -4.156,-6.704 h 4.737 l 1.808,-2.785 c 0,0 -4.492,-6.357 -4.529,-6.357 -0.037,0 -4.848,-2.649 -4.848,-2.649 h -7.289 l -1.93,2.425 1.892,3.427 h 6.644 l -1.733,-2.772 h 1.486 l 3.043,4.74 h -4.478 l -2.117,3.23 4.417,8.053 z"/>
            </g>
            <g
                    transform="matrix(0.35277777,0,0,-0.35277777,71.377214,219.75539)"
                    id="g6584">
                <path

                        id="path6586"
                        style="fill:none;stroke:#221815;stroke-width:0.105;stroke-linecap:butt;stroke-linejoin:miter;stroke-miterlimit:4;stroke-dasharray:none;stroke-opacity:1"
                        d="m 0,0 h 9.342 c -0.039,0 1.606,-2.97 1.606,-2.97 L 6.828,-8.747 H 0.014 l 3.054,4.774 H 1.064 l -4.156,-6.704 h 4.737 l 1.808,-2.785 c 0,0 -4.492,-6.357 -4.529,-6.357 -0.037,0 -4.848,-2.649 -4.848,-2.649 h -7.289 l -1.93,2.425 1.892,3.427 h 6.644 l -1.733,-2.772 h 1.486 l 3.043,4.74 h -4.478 l -2.117,3.23 4.417,8.053 z"/>
            </g>
            <g
                    transform="matrix(0.35277777,0,0,-0.35277777,45.417039,222.73678)"
                    id="g6588">
                <path

                        id="path6590"
                        style="fill:#ffffff;fill-opacity:1;fill-rule:nonzero;stroke:none"
                        d="M 0,0 V -7.756 H 2.139 Z M -6.534,8.45 H 4.268 L 9.094,-14.028 H 3.762 L 2.76,-10.564 H 0.014 v -3.464 h -5.743 z"/>
            </g>
            <g
                    transform="matrix(0.35277777,0,0,-0.35277777,45.417039,222.73678)"
                    id="g6592">
                <path

                        id="path6594"
                        style="fill:none;stroke:#221815;stroke-width:0.105;stroke-linecap:butt;stroke-linejoin:miter;stroke-miterlimit:4;stroke-dasharray:none;stroke-opacity:1"
                        d="M 0,0 V -7.756 H 2.139 Z M -6.534,8.45 H 4.268 L 9.094,-14.028 H 3.762 L 2.76,-10.564 H 0.014 v -3.464 h -5.743 z"/>
            </g>
            <g
                    transform="matrix(0.35277777,0,0,-0.35277777,51.278548,226.73863)"
                    id="g6596">
                <path

                        id="path6598"
                        style="fill:#ffffff;fill-opacity:1;fill-rule:nonzero;stroke:none"
                        d="M 0,0 H 1.943 L 3.056,15.638 H 0.767 Z M -6.373,19.782 H 6.348 c 0,0 4.39,-3.773 4.39,-3.81 0,-0.038 -2.4,-16.171 -2.4,-16.171 L 4.949,-2.673 H -5.865 Z"/>
            </g>
            <g
                    transform="matrix(0.35277777,0,0,-0.35277777,51.278548,226.73863)"
                    id="g6600">
                <path

                        id="path6602"
                        style="fill:none;stroke:#221815;stroke-width:0.105;stroke-linecap:butt;stroke-linejoin:miter;stroke-miterlimit:4;stroke-dasharray:none;stroke-opacity:1"
                        d="M 0,0 H 1.943 L 3.056,15.638 H 0.767 Z M -6.373,19.782 H 6.348 c 0,0 4.39,-3.773 4.39,-3.81 0,-0.038 -2.4,-16.171 -2.4,-16.171 L 4.949,-2.673 H -5.865 Z"/>
            </g>
            <g
                    transform="matrix(0.35277777,0,0,-0.35277777,34.631847,208.06275)"
                    id="g6604">
                <path

                        id="path6606"
                        style="fill:#ffffff;fill-opacity:1;fill-rule:nonzero;stroke:none"
                        d="m 0,0 h 8.588 l 5.294,-4.429 1.435,-6.532 H 7.945 L 6.533,-6.038 H 4.949 l 2.08,-7.324 h 5.344 l 4.231,-3.563 1.632,-7.448 -3.091,-3.536 H 7.77 l -4.157,3.066 -1.36,3.811 h 7.026 l 0.694,-2.401 h 1.459 L 9.997,-18.51 H 4.799 l -5.17,4.95 -3.067,8.587 z"/>
            </g>
            <g
                    transform="matrix(0.35277777,0,0,-0.35277777,34.631847,208.06275)"
                    id="g6608">
                <path

                        id="path6610"
                        style="fill:none;stroke:#221815;stroke-width:0.105;stroke-linecap:butt;stroke-linejoin:miter;stroke-miterlimit:4;stroke-dasharray:none;stroke-opacity:1"
                        d="m 0,0 h 8.588 l 5.294,-4.429 1.435,-6.532 H 7.945 L 6.533,-6.038 H 4.949 l 2.08,-7.324 h 5.344 l 4.231,-3.563 1.632,-7.448 -3.091,-3.536 H 7.77 l -4.157,3.066 -1.36,3.811 h 7.026 l 0.694,-2.401 h 1.459 L 9.997,-18.51 H 4.799 l -5.17,4.95 -3.067,8.587 z"/>
            </g>
            <g
                    transform="matrix(0.35277777,0,0,-0.35277777,43.771331,213.44846)"
                    id="g6612">
                <path

                        id="path6614"
                        style="fill:#ffffff;fill-opacity:1;fill-rule:nonzero;stroke:none"
                        d="M 0,0 H 1.683 L 0.472,9.255 H -1.311 Z M -10.071,15.243 H 3.093 L 8.239,10.664 9.032,-0.472 5.642,-5.221 H 0.52 l 1.262,-7.424 h -6.287 z"/>
            </g>
            <g
                    transform="matrix(0.35277777,0,0,-0.35277777,43.771331,213.44846)"
                    id="g6616">
                <path

                        id="path6618"
                        style="fill:none;stroke:#221815;stroke-width:0.105;stroke-linecap:butt;stroke-linejoin:miter;stroke-miterlimit:4;stroke-dasharray:none;stroke-opacity:1"
                        d="M 0,0 H 1.683 L 0.472,9.255 H -1.311 Z M -10.071,15.243 H 3.093 L 8.239,10.664 9.032,-0.472 5.642,-5.221 H 0.52 l 1.262,-7.424 h -6.287 z"/>
            </g>
            <g
                    transform="matrix(0.35277777,0,0,-0.35277777,55.817457,208.06723)"
                    id="g6620">
                <path

                        id="path6622"
                        style="fill:#ffffff;fill-opacity:1;fill-rule:nonzero;stroke:none"
                        d="M 0,0 H 8.772 L 12.83,-4.453 11.245,-10.96 H 3.823 l 0.805,5.134 H 2.475 l -2.611,-17.62 h 1.844 l 1.026,6.163 H 9.712 L 8.004,-24.248 3.773,-27.91 h -7.336 l -3.253,4.033 1.719,19.324 z"/>
            </g>
            <g
                    transform="matrix(0.35277777,0,0,-0.35277777,55.817457,208.06723)"
                    id="g6624">
                <path

                        id="path6626"
                        style="fill:none;stroke:#221815;stroke-width:0.105;stroke-linecap:butt;stroke-linejoin:miter;stroke-miterlimit:4;stroke-dasharray:none;stroke-opacity:1"
                        d="M 0,0 H 8.772 L 12.83,-4.453 11.245,-10.96 H 3.823 l 0.805,5.134 H 2.475 l -2.611,-17.62 h 1.844 l 1.026,6.163 H 9.712 L 8.004,-24.248 3.773,-27.91 h -7.336 l -3.253,4.033 1.719,19.324 z"/>
            </g>
            <g
                    transform="matrix(0.35277777,0,0,-0.35277777,61.613807,208.06723)"
                    id="g6628">
                <path

                        id="path6630"
                        style="fill:#ffffff;fill-opacity:1;fill-rule:nonzero;stroke:none"
                        d="M 0,0 H 16.17 L 14.078,-5.84 H 6.174 L 4.502,-11.345 H 9.836 L 8.078,-16.491 H 3.166 L 1.199,-23.42 H 7.683 L 6.072,-27.887 H -6.805 Z"/>
            </g>
            <g
                    transform="matrix(0.35277777,0,0,-0.35277777,61.613807,208.06723)"
                    id="g6632">
                <path

                        id="path6634"
                        style="fill:none;stroke:#221815;stroke-width:0.105;stroke-linecap:butt;stroke-linejoin:miter;stroke-miterlimit:4;stroke-dasharray:none;stroke-opacity:1"
                        d="M 0,0 H 16.17 L 14.078,-5.84 H 6.174 L 4.502,-11.345 H 9.836 L 8.078,-16.491 H 3.166 L 1.199,-23.42 H 7.683 L 6.072,-27.887 H -6.805 Z"/>
            </g>
            <g
                    transform="matrix(0.35277777,0,0,-0.35277777,49.999023,210.81882)"
                    id="g6636">
                <path

                        id="path6638"
                        style="fill:#ffffff;fill-opacity:1;fill-rule:nonzero;stroke:none"
                        d="M 0,0 -1.125,-11.241 H 0.929 Z M -5.306,7.812 H 5.458 L 7.809,-20.099 H 1.685 l -0.408,4.876 h -2.748 l -0.47,-4.876 h -6.135 z"/>
            </g>
            <g
                    transform="matrix(0.35277777,0,0,-0.35277777,49.999023,210.81882)"
                    id="g6640">
                <path

                        id="path6642"
                        style="fill:none;stroke:#221815;stroke-width:0.105;stroke-linecap:butt;stroke-linejoin:miter;stroke-miterlimit:4;stroke-dasharray:none;stroke-opacity:1"
                        d="M 0,0 -1.125,-11.241 H 0.929 Z M -5.306,7.812 H 5.458 L 7.809,-20.099 H 1.685 l -0.408,4.876 h -2.748 l -0.47,-4.876 h -6.135 z"/>
            </g>
        </g>
    </g>
</svg>
